<svg width="113" height="79" viewBox="0 0 113 79" fill="none" xmlns="http://www.w3.org/2000/svg">
<rect width="112.003" height="78.8842" transform="translate(0.323853)" fill="white"/>
<path d="M67.9394 30.4705C67.4532 30.3763 66.9691 30.2644 66.4795 30.19C62.9613 29.6555 59.432 29.1887 55.9468 28.4533C54.8574 28.2424 53.7848 27.9521 52.7378 27.5848C51.8648 27.2778 51.0407 26.8468 50.2907 26.3048C47.9433 24.5572 47.3333 22.0684 48.6532 19.4467C49.5875 17.5915 51.0206 16.1525 52.6414 14.899C56.9158 11.5952 61.8432 9.83043 67.1027 8.9307C74.5936 7.65791 82.2479 7.69082 89.7268 9.02799C92.7918 9.56466 95.7544 10.4562 98.53 11.8868C100.635 12.9717 102.168 14.5421 103.312 16.6983C104.645 19.2105 104.539 21.7717 103.719 24.1549C101.271 31.2693 97.7943 37.759 91.6492 42.531C88.026 45.3446 84.0677 47.459 79.8458 49.1417C77.9076 49.931 75.7967 50.1992 73.723 49.9198C70.3326 49.4611 68.1627 47.5659 67.3471 44.24C66.6181 41.2682 66.9186 38.3664 68.1959 35.5799C68.5398 34.8297 68.9331 34.102 69.2925 33.3863C69.1211 33.1652 68.948 33.2009 68.7768 33.2711C66.4259 34.2348 64.0713 35.1898 61.7274 36.1704C60.6599 36.6171 60.6725 36.6395 61.1199 37.6702C61.6717 38.9408 62.2796 40.1872 62.6975 41.5129C62.8818 42.0369 62.9801 42.5873 62.9886 43.1428C62.9767 43.8821 62.6159 44.3766 62.0227 44.4768C61.3801 44.5856 60.9566 44.26 60.6969 43.71C60.5401 43.3775 60.4414 43.0184 60.3091 42.6733C59.7806 41.2939 59.2783 39.9034 58.7087 38.5411C58.3185 37.6079 58.2697 37.6099 57.3849 37.9641C55.97 38.5313 54.5746 39.1489 53.1502 39.6902C52.4818 39.9442 52.2949 40.2274 52.64 40.9167C53.2393 42.1137 53.7781 43.3407 54.4728 44.489C54.5973 44.6826 54.7045 44.8868 54.7932 45.0992C54.8825 45.3148 54.9036 45.5527 54.8538 45.7808C54.8039 46.0088 54.6855 46.2162 54.5144 46.375C54.1544 46.7477 53.6981 46.7884 53.2299 46.6371C52.6705 46.4564 52.3195 46.0268 52.0204 45.5477C51.3321 44.4455 50.8445 43.2474 50.3384 42.0569C49.9206 41.0742 49.902 41.067 48.9322 41.4424C47.8123 41.8759 46.6964 42.3213 45.5903 42.7885C44.7649 43.1374 44.7367 43.213 45.0935 44.0162C45.9749 45.9996 46.8759 47.9744 47.7613 49.956C47.9266 50.2853 48.0544 50.6321 48.1423 50.9899C48.2817 51.7024 47.9994 52.246 47.4201 52.471C46.8158 52.7057 46.3138 52.5 45.9615 52.0047C45.6378 51.5548 45.3577 51.0751 45.125 50.5721C44.3602 48.8908 43.6144 47.2009 42.8877 45.5022C42.3079 44.1534 42.3222 44.1474 40.9035 44.7309C40.4335 44.9243 39.962 45.1137 39.4938 45.3113C38.3732 45.7843 38.3741 45.7857 38.7592 46.8763C39.574 49.184 40.3938 51.49 41.1986 53.8012C41.3568 54.234 41.4737 54.6808 41.5475 55.1357C41.6367 55.7507 41.3753 56.2302 40.7839 56.464C40.182 56.7018 39.7044 56.4576 39.3205 55.9884C39.0226 55.6241 38.8762 55.1869 38.7247 54.7475C37.9872 52.608 37.2417 50.4718 36.4882 48.3388C36.3211 47.8642 36.126 47.4003 35.922 46.8755C34.3883 47.2665 33.0529 48.023 31.6233 48.522C30.3666 48.9606 29.2315 49.7643 27.8507 49.8239C27.3183 49.8469 27.3318 50.2785 27.1947 50.5876C26.1876 52.8724 25.3563 55.2307 24.7082 57.6419C23.6797 61.4334 22.6527 65.2253 21.6273 69.0175C21.55 69.3787 21.4428 69.7328 21.307 70.0762C21.0109 70.7175 20.4522 70.9885 19.8435 70.8481C19.2721 70.7163 18.8632 70.1774 18.8565 69.506C18.8568 69.2747 18.8893 69.0446 18.953 68.8222C20.5142 63.2141 21.7661 57.5176 23.7406 52.0275C23.8345 51.7666 23.9427 51.5109 24.0437 51.2527C24.7859 49.3551 24.916 49.833 23.3714 48.5069C20.3249 45.8913 17.1688 43.4027 14.0346 40.8905C12.3755 39.5613 10.7498 38.1972 9.19663 36.7464C8.9821 36.571 8.78417 36.3762 8.60539 36.1644C8.27705 35.7166 8.19866 35.2238 8.57165 34.7612C8.92984 34.3167 9.41244 34.1835 9.9376 34.4177C10.2297 34.555 10.5001 34.7346 10.7399 34.9507C14.431 38.1722 18.4675 40.9563 22.2555 44.0558C23.5786 45.1386 24.9116 46.2072 26.1055 47.4329C26.5152 47.8533 26.7644 47.9466 27.3512 47.5553C28.6581 46.6837 30.216 46.2934 31.6491 45.6545C32.366 45.3351 33.1062 45.0682 33.8278 44.7591C34.9869 44.2627 34.9939 44.2519 34.4564 43.0669C33.8842 41.805 33.2869 40.5546 32.7097 39.2949C32.5497 38.9631 32.4158 38.6193 32.3092 38.2666C32.1424 37.6699 32.2934 37.1551 32.8563 36.8414C33.3776 36.5509 34.0376 36.7421 34.3934 37.3698C34.939 38.3329 35.4085 39.3396 35.8993 40.3334C36.2673 41.0786 36.6366 41.8242 36.9696 42.5851C37.1937 43.0971 37.4623 43.3041 38.0327 43.0394C38.7859 42.6898 39.5776 42.4243 40.3412 42.0957C41.2386 41.7092 41.269 41.6361 40.9081 40.7603C40.4856 39.7358 40.0364 38.7223 39.6034 37.702C39.486 37.4514 39.3887 37.1918 39.3126 36.9257C39.1288 36.1783 39.3417 35.651 39.8989 35.3984C40.4893 35.1309 41.132 35.3736 41.4877 36.1032C42.1152 37.3893 42.7067 38.6943 43.2701 40.0098C43.5057 40.5599 43.8155 40.6822 44.3471 40.4588C45.6671 39.9041 46.9919 39.361 48.3216 38.8295C48.8329 38.6262 48.8833 38.3166 48.6976 37.8465C48.2747 36.7763 48.0397 35.6393 47.4527 34.6249C47.0619 33.9483 47.2016 33.3737 47.7058 33.0359C48.1897 32.7116 48.8626 32.8008 49.3428 33.2969C49.9052 33.8782 50.1018 34.6552 50.4171 35.3735C50.724 36.072 50.6722 37.1236 51.4312 37.3776C52.0742 37.5926 52.7952 36.955 53.4788 36.689C54.4257 36.3202 55.3649 35.9312 56.3024 35.5388C57.2399 35.1464 57.2483 35.1316 56.8924 34.2402C56.6873 33.7262 56.4351 33.2312 56.2257 32.7185C55.9269 31.9874 56.0597 31.4761 56.6057 31.1541C57.1364 30.8415 57.7359 30.9648 58.1963 31.5342C58.6369 32.0787 58.8961 32.7284 59.1319 33.3807C59.3398 33.9554 59.6335 34.1808 60.2739 33.9114C62.8241 32.8387 65.3898 31.8032 67.9502 30.7551L67.9394 30.4705ZM101.454 21.4701C100.733 21.7321 100.317 22.2228 99.8519 22.6392C98.5107 23.8402 97.2037 25.0819 95.8255 26.2388C95.0492 26.8906 94.2124 26.8272 93.7141 26.2454C93.2226 25.6719 93.2492 24.9623 93.9725 24.2848C96.0946 22.2964 97.9889 20.074 100.232 18.2121C101.028 17.5512 101.047 17.4997 100.472 16.6482C99.6975 15.501 98.5945 14.7481 97.3667 14.1794C94.5913 12.9076 91.6574 12.0144 88.6438 11.524C82.6354 10.5135 76.6014 10.4269 70.5561 11.0992C65.9313 11.6137 61.4691 12.7284 57.345 14.967C55.0075 16.2357 52.8885 17.7858 51.3834 20.0273C50.072 21.98 50.4724 23.466 52.5472 24.6007C53.5713 25.1607 54.6862 25.4632 55.8153 25.7147C58.5225 26.3177 61.2632 26.7312 64.004 27.146C66.2874 27.4916 68.5783 27.8066 70.8425 28.2522C73.8422 28.8422 74.4295 30.286 72.8139 32.8599C71.9549 34.2285 71.0486 35.569 70.4316 37.0745C69.5794 39.0913 69.3871 41.3258 69.8824 43.4582C70.4258 45.8252 71.7968 47.0148 74.1903 47.3064C75.5259 47.4536 76.8776 47.3219 78.1599 46.9198C79.3154 46.5779 80.398 46.0577 81.4954 45.5709C85.6927 43.7273 89.5236 41.1424 92.8041 37.9401C96.9195 33.9197 99.1093 28.7823 101.182 23.5782C101.466 22.9143 101.561 22.1843 101.454 21.4701Z" fill="#8C7CD2"/>
<path d="M85.0645 23.8786C83.581 24.9343 81.9245 25.1875 80.1808 24.8299C78.7991 24.5465 77.8711 23.6954 77.5236 22.3029C77.0547 20.4223 77.3546 18.6301 78.2796 16.9471C78.6621 16.25 79.2868 15.7173 80.0355 15.4497C81.4734 14.9088 82.9379 14.8401 84.3816 15.3336C86.0732 15.9124 87.2159 17.0627 87.5343 18.8733C87.8606 20.7295 87.2113 22.2304 85.7318 23.3816C85.5132 23.5523 85.287 23.7132 85.0645 23.8786Z" fill="#8C7CD2"/>
</svg>
