<svg width="15" height="17" viewBox="0 0 15 17" fill="none" xmlns="http://www.w3.org/2000/svg">
<g clip-path="url(#clip0_1_10767)">
<path d="M13.528 12.1407C12.3665 11.2606 10.6369 10.7339 10.2736 10.1561C9.80718 9.41359 10.0368 7.08942 7.49634 7.08942C4.95584 7.08942 5.23883 9.82218 4.62379 10.4473C3.78798 11.2965 2.64749 11.2901 1.46434 12.1407C0.125124 13.1033 0.569516 14.7408 1.55358 15.8122C3.53983 17.976 5.98363 15.5544 7.49634 15.5544C9.00905 15.5544 11.4752 18.4205 13.25 16.0793C14.5597 14.3535 14.3659 12.7758 13.528 12.1407Z" fill="#CCCCCC"/>
<path d="M1.78064 10.3353C2.67911 10.3353 3.40747 9.01164 3.40747 7.37885C3.40747 5.74606 2.67911 4.42242 1.78064 4.42242C0.882165 4.42242 0.153809 5.74606 0.153809 7.37885C0.153809 9.01164 0.882165 10.3353 1.78064 10.3353Z" fill="#CCCCCC"/>
<path d="M13.3097 10.463C14.2081 10.463 14.9365 9.13939 14.9365 7.5066C14.9365 5.87381 14.2081 4.55017 13.3097 4.55017C12.4112 4.55017 11.6829 5.87381 11.6829 7.5066C11.6829 9.13939 12.4112 10.463 13.3097 10.463Z" fill="#CCCCCC"/>
<path d="M5.41297 5.72012C6.28219 5.72012 6.98683 4.43963 6.98683 2.86006C6.98683 1.28049 6.28219 0 5.41297 0C4.54375 0 3.83911 1.28049 3.83911 2.86006C3.83911 4.43963 4.54375 5.72012 5.41297 5.72012Z" fill="#CCCCCC"/>
<path d="M9.40712 5.72012C10.2763 5.72012 10.981 4.43963 10.981 2.86006C10.981 1.28049 10.2763 0 9.40712 0C8.5379 0 7.83325 1.28049 7.83325 2.86006C7.83325 4.43963 8.5379 5.72012 9.40712 5.72012Z" fill="#CCCCCC"/>
</g>
<defs>
<clipPath id="clip0_1_10767">
<rect width="14.7826" height="17" fill="white" transform="translate(0.153809)"/>
</clipPath>
</defs>
</svg>
