<?xml version="1.0" encoding="utf-8"?>
<!-- Generator: Adobe Illustrator 25.2.3, SVG Export Plug-In . SVG Version: 6.00 Build 0)  -->
<svg version="1.1" id="Layer_1" xmlns="http://www.w3.org/2000/svg" xmlns:xlink="http://www.w3.org/1999/xlink" x="0px" y="0px"
	 viewBox="0 0 32.1 128.6" style="enable-background:new 0 0 32.1 128.6;" xml:space="preserve">
<style type="text/css">
	.st0{fill:#FFFFFF;}
</style>
<g id="warning">
	<path class="st0" d="M31.8,27.6L18.4,1.5c-0.6-1.3-2.1-1.8-3.3-1.3c-0.6,0.3-1,0.7-1.3,1.3L0.4,27.6c-1,1.9,0.3,4.4,2.3,4.4h26.7
		C31.5,32,32.7,29.6,31.8,27.6z M14.5,8.7l3.4-0.3l-0.3,8.4v4l-3.1,0.1V8.7z M18.1,24.3c0,0.6-0.2,1.2-0.5,1.7
		c-0.4,0.5-0.9,0.7-1.5,0.7s-1.1-0.2-1.5-0.6c-0.4-0.5-0.6-1.2-0.5-1.8c0-0.6,0.2-1.2,0.5-1.7s0.9-0.7,1.5-0.7s1.1,0.2,1.5,0.6
		C18,23,18.2,23.7,18.1,24.3z"/>
</g>
<path id="explanation" class="st0" d="M31.3,35.5c-0.3-1.4-1.4-2.6-2.7-2.7C24.5,32,17.5,32,16.1,32s-8.4,0-12.5,0.8
	C2.1,32.9,1,34,0.9,35.5C0.1,39.6,0.1,46.6,0.1,48s0,8.4,0.8,12.5c0.3,1.4,1.4,2.6,2.7,2.7C7.7,64,14.7,64,16.1,64s8.4,0,12.5-0.8
	c1.4-0.3,2.6-1.4,2.7-2.7c0.8-4.1,0.8-11.1,0.8-12.5C32.1,43.9,32.1,39.6,31.3,35.5z M17.8,57.6h-3.4V44l3.4-0.2V57.6z M17.3,41.6
	c-0.3,0.5-0.6,0.6-1.2,0.6S15,42,14.7,41.6c-0.5-0.3-0.6-0.8-0.6-1.4c0-0.5,0.2-0.9,0.5-1.4s0.8-0.6,1.4-0.6c0.6,0,1.1,0.2,1.4,0.6
	c0.3,0.3,0.5,0.8,0.5,1.4C17.8,40.7,17.6,41.1,17.3,41.6z"/>
<g id="error_2_">
	<g id="error_3_">
		<path class="st0" d="M16.1,64.4c-8.8,0-16,7.2-16,16s7.2,16,16,16s16-7.2,16-16S24.9,64.4,16.1,64.4z M22.6,86.9
			c-0.5,0.5-1.3,0.5-1.8,0L16,82.7l-4.7,4.2c-0.5,0.5-1.3,0.5-1.8,0s-0.5-1.3,0-1.8l4.2-4.8l-4.2-4.8c-0.4-0.5-0.4-1.2,0-1.7
			c0.5-0.4,1.3-0.4,1.8,0l4.8,4.2l4.8-4.2v0.1c0.5-0.5,1.3-0.5,1.8,0s0.5,1.2,0,1.7l-4.3,4.8l4.2,4.8C23.1,85.7,23.1,86.5,22.6,86.9
			z"/>
	</g>
</g>
<g id="confirmation_2_">
	<g id="confirmation_3_" transform="translate(0.000000,85.000000) scale(0.100000,-0.100000)">
		<path class="st0" d="M43.6-119.2c-39-6.3-42.9-21.1-42.9-156.1c0-137.7,3.5-149.4,46.8-156.4c30.4-5.1,195.9-5.1,226,0
			c44.9,7.4,46.8,14.9,47.2,156.4c0,141.6-2.3,149-47.2,156.4C245.8-114.1,71.3-114.5,43.6-119.2z M232.1-201.7
			c2.7-2.7,4.7-7.4,4.7-10.6c0-8.2-78.4-137.7-84.7-140c-8.6-3.1-16,5.9-42.5,50.8c-26.1,44.6-27.7,49.3-20.3,56.7
			c7.4,7.4,12.1,5.9,35.1-14.9l21.9-19.2l28.1,32.1c31.2,35.2,45.7,49.7,50.3,49.7C226.3-197,229.4-199,232.1-201.7z"/>
	</g>
</g>
</svg>
