<?xml version="1.0" encoding="utf-8"?>
<!-- Generator: Adobe Illustrator 25.1.0, SVG Export Plug-In . SVG Version: 6.00 Build 0)  -->
<svg version="1.1" id="Layer_1" xmlns="http://www.w3.org/2000/svg" xmlns:xlink="http://www.w3.org/1999/xlink" x="0px" y="0px"
	 viewBox="0 0 32 128" style="enable-background:new 0 0 32 128;" xml:space="preserve">
<style type="text/css">
	.st0{fill:#FFB612;}
	.st1{fill:#FFFFFF;}
	.st2{fill:#007BC7;}
	.st3{fill:#D52B1E;}
	.st4{fill:#348834;}
</style>
<g id="warning">
	<path class="st0" d="M31.7,27.6L18.3,1.5c-0.6-1.3-2.1-1.8-3.3-1.3c-0.6,0.3-1,0.7-1.3,1.3L0.3,27.6c-1,1.9,0.3,4.4,2.3,4.4h26.7
		C31.4,32,32.6,29.6,31.7,27.6z"/>
	<path d="M14,24.3c0-0.6,0.2-1.2,0.5-1.7c0.3-0.5,0.9-0.7,1.5-0.7c0.6,0,1.1,0.2,1.5,0.6c0.4,0.5,0.6,1.2,0.5,1.8
		c0,0.6-0.2,1.2-0.5,1.7c-0.4,0.5-0.9,0.7-1.5,0.7c-0.6,0-1.1-0.2-1.5-0.6C14.1,25.6,13.9,24.9,14,24.3z M14.4,8.7l3.4-0.3l-0.3,8.4
		v4l-3.1,0.1L14.4,8.7L14.4,8.7z"/>
</g>
<g id="explanation_1_">
	<rect x="7" y="36" class="st1" width="18" height="25"/>
	<g id="explanation">
		<g>
			<path class="st2" d="M31.2,35.5c-0.3-1.4-1.4-2.6-2.7-2.7C24.4,32,17.4,32,16,32c-1.4,0-8.4,0-12.5,0.8C2,32.9,0.9,34,0.8,35.5
				C0,39.6,0,46.6,0,48c0,1.4,0,8.4,0.8,12.5c0.3,1.4,1.4,2.6,2.7,2.7C7.6,64,14.6,64,16,64s8.4,0,12.5-0.8c1.4-0.3,2.6-1.4,2.7-2.7
				C32,56.4,32,49.4,32,48C32,43.9,32,39.6,31.2,35.5z M17.7,57.6h-3.4V44l3.4-0.2V57.6z M17.2,41.6c-0.3,0.5-0.6,0.6-1.2,0.6
				s-1.1-0.2-1.4-0.6c-0.5-0.3-0.6-0.8-0.6-1.4c0-0.5,0.2-0.9,0.5-1.4s0.8-0.6,1.4-0.6c0.6,0,1.1,0.2,1.4,0.6
				c0.3,0.3,0.5,0.8,0.5,1.4C17.7,40.7,17.5,41.1,17.2,41.6z"/>
		</g>
	</g>
</g>
<g id="error_1_">
	<rect x="7" y="68" class="st1" width="18" height="23"/>
	<g id="error">
		<path class="st3" d="M15.8,64c-8.8,0-16,7.2-16,16s7.2,16,16,16c8.8,0,16-7.2,16-16S24.6,64,15.8,64z M22.3,86.5
			c-0.5,0.5-1.3,0.5-1.8,0l-4.8-4.2L11,86.5c-0.5,0.5-1.3,0.5-1.8,0s-0.5-1.3,0-1.8l4.2-4.8l-4.2-4.8c-0.4-0.5-0.4-1.2,0-1.7
			c0.5-0.4,1.3-0.4,1.8,0l4.8,4.2l4.8-4.2l0,0.1c0.5-0.5,1.3-0.5,1.8,0c0.5,0.5,0.5,1.2,0,1.7L18.1,80l4.2,4.8
			C22.8,85.3,22.8,86.1,22.3,86.5z"/>
	</g>
</g>
<g id="confirmation_1_">
	<rect x="7" y="101" class="st1" width="18" height="23"/>
	<g id="confirmation" transform="translate(0.000000,85.000000) scale(0.100000,-0.100000)">
		<path class="st4" d="M42.9-113.7C3.9-120,0-134.8,0-269.8c0-137.7,3.5-149.4,46.8-156.4c30.4-5.1,195.9-5.1,226,0
			c44.9,7.4,46.8,14.9,47.2,156.4c0,141.6-2.3,149-47.2,156.4C245.1-108.6,70.6-109,42.9-113.7z M231.4-196.2
			c2.7-2.7,4.7-7.4,4.7-10.6c0-8.2-78.4-137.7-84.7-140c-8.6-3.1-16,5.9-42.5,50.8c-26.1,44.6-27.7,49.3-20.3,56.7
			c7.4,7.4,12.1,5.9,35.1-14.9l21.9-19.2l28.1,32.1c31.2,35.2,45.7,49.7,50.3,49.7C225.6-191.5,228.7-193.5,231.4-196.2z"/>
	</g>
</g>
</svg>
