<svg width="15" height="17" viewBox="0 0 15 17" fill="none" xmlns="http://www.w3.org/2000/svg">
<g clip-path="url(#clip0_1_10795)">
<path d="M13.3742 12.1407C12.2127 11.2606 10.4831 10.7339 10.1198 10.1561C9.65337 9.41359 9.88303 7.08942 7.34253 7.08942C4.80203 7.08942 5.08502 9.82218 4.46998 10.4473C3.63417 11.2965 2.49368 11.2901 1.31053 12.1407C-0.0286843 13.1033 0.415707 14.7408 1.39977 15.8122C3.38602 17.976 5.82982 15.5544 7.34253 15.5544C8.85524 15.5544 11.3214 18.4205 13.0962 16.0793C14.4059 14.3535 14.2121 12.7758 13.3742 12.1407Z" fill="#262431"/>
<path d="M1.62683 10.3353C2.5253 10.3353 3.25366 9.01164 3.25366 7.37885C3.25366 5.74606 2.5253 4.42242 1.62683 4.42242C0.728357 4.42242 0 5.74606 0 7.37885C0 9.01164 0.728357 10.3353 1.62683 10.3353Z" fill="#262431"/>
<path d="M13.1559 10.463C14.0543 10.463 14.7827 9.13939 14.7827 7.5066C14.7827 5.87381 14.0543 4.55017 13.1559 4.55017C12.2574 4.55017 11.5291 5.87381 11.5291 7.5066C11.5291 9.13939 12.2574 10.463 13.1559 10.463Z" fill="#262431"/>
<path d="M5.25916 5.72012C6.12838 5.72012 6.83302 4.43963 6.83302 2.86006C6.83302 1.28049 6.12838 0 5.25916 0C4.38994 0 3.6853 1.28049 3.6853 2.86006C3.6853 4.43963 4.38994 5.72012 5.25916 5.72012Z" fill="#262431"/>
<path d="M9.25331 5.72012C10.1225 5.72012 10.8272 4.43963 10.8272 2.86006C10.8272 1.28049 10.1225 0 9.25331 0C8.38409 0 7.67944 1.28049 7.67944 2.86006C7.67944 4.43963 8.38409 5.72012 9.25331 5.72012Z" fill="#262431"/>
</g>
<defs>
<clipPath id="clip0_1_10795">
<rect width="14.7826" height="17" fill="white"/>
</clipPath>
</defs>
</svg>
