<?xml version="1.0" encoding="utf-8"?>
<!-- Generator: Adobe Illustrator 25.1.0, SVG Export Plug-In . SVG Version: 6.00 Build 0)  -->
<svg version="1.1" id="Laag_1" xmlns="http://www.w3.org/2000/svg" xmlns:xlink="http://www.w3.org/1999/xlink" x="0px" y="0px"
	 viewBox="0 0 50 100" style="enable-background:new 0 0 50 100;" xml:space="preserve">
<style type="text/css">
	.st0{fill:#154273;}
	.st1{fill:#FFFFFF;}
</style>
<g>
	<rect class="st0" width="50" height="100"/>
	<path class="st1" d="M25.9,77.4H25V75h0.9V77.4z M29.8,66.7H29v-2.4h0.9v2.4H29.8z M13.7,62.6c-0.1,0-0.5,0-0.5,0.1s0.2,0,0.5,0.1
		c0.7,0.1,1,0.5,1.5,0.5c0.4,0,0.9-0.3,0.7-0.9c0-0.1-0.1-0.1-0.1,0c-0.1,0.3-0.4,0.5-0.8,0.5C14.5,62.7,14.4,62.6,13.7,62.6z
		 M8.9,65c0.1,0.1,0.9,1.2-0.4,1.6c-0.1,0-0.1,0.1,0,0.1c0.9,0.4,1.4-0.3,1.4-0.3c0.5,1.1-0.3,1.7-0.3,1.7c0.1,0.2,0.6,0.5,1.2,0.7
		c0.3-0.1,0.6-0.4,0.8-0.8c0,0,0.2,0.5,0,0.9c1.9,0.2,2.6-1.3,4-1.1c0,0,0.1,0,0.1-0.1c0-0.9-0.6-2.7-2.4-3S12,63.6,12,63.6
		c0.8,0,1.2,0.3,1.2,0.3c0.1-0.2-0.1-0.5-0.1-0.5c0.1-0.1,0.1-0.4,0.1-0.4c-0.9,0-1.1-0.2-1.1-0.2c-0.1-0.5,0.2-1.2,1.5-0.5
		c0.3-0.3,0.3-0.7,0.3-0.7c0.1,0,0.2-0.2,0.2-0.3c0-0.2-1-0.8-1.3-0.8c-0.1-0.3-0.5-0.8-1.7-0.6c-0.6,0.1-1-0.1-0.8-0.4
		c0-0.1-0.1-0.1-0.1,0c-0.1,0.1-0.3,0.5,0.2,0.8c0.6,0.3,0.6,0.8,0.6,0.9c0,0.1-0.1,0.1-0.2,0c-0.2-0.9-1.5-1.1-2.3-0.6
		c0,0.5,0.6,0.8,0.9,0.8c0.2,0,0.4-0.2,0.4-0.4c0-0.1,0.1-0.1,0.1,0c0.1,0.3-0.4,1-1.1,0.6c-0.7,0.7-0.4,1.7-0.4,2
		c0.1,0.6-0.2,1.2-0.7,0.9H7.6C7.8,64.9,8.3,65.3,8.9,65z M13,61.2c-0.4,0.4-0.9,0.3-1.1-0.3C12.7,60.9,13,60.9,13,61.2z M35.1,62.7
		c-0.4,0-0.7-0.2-0.8-0.5c0-0.1-0.1-0.1-0.1,0c-0.2,0.6,0.3,0.9,0.7,0.9c0.5,0,0.8-0.3,1.5-0.5c0.3,0,0.5,0,0.5-0.1
		s-0.5-0.1-0.5-0.1C35.6,62.6,35.5,62.7,35.1,62.7z M42.2,64.5C42.2,64.4,42.2,64.4,42.2,64.5c-0.6,0.2-0.9-0.3-0.8-1
		c0.1-0.3,0.4-1.2-0.4-2c-0.7,0.4-1.2-0.3-1.1-0.6c0-0.1,0.1-0.1,0.1,0c0,0.2,0.2,0.4,0.4,0.4c0.3,0,0.8-0.3,0.9-0.8
		c-0.8-0.5-2-0.3-2.3,0.6c0,0.1-0.2,0.1-0.2,0s0-0.6,0.6-0.9c0.5-0.2,0.3-0.6,0.2-0.8c0,0-0.2,0-0.1,0c0.2,0.3-0.2,0.5-0.8,0.4
		c-1.2-0.2-1.6,0.3-1.7,0.6c-0.3,0.1-1.3,0.6-1.3,0.8c0,0.1,0.1,0.2,0.2,0.3c0,0,0,0.4,0.3,0.7c1.3-0.8,1.6,0,1.5,0.5
		c0,0-0.2,0.2-1.1,0.2c0,0,0,0.3,0.1,0.4c0,0-0.2,0.2-0.1,0.5c0,0,0.4-0.3,1.2-0.3c0,0,0.5,0.7-1.3,1.1s-2.4,2.1-2.4,3
		c0,0.1,0,0.1,0.1,0.1c1.5-0.3,2.1,1.2,4,1.1c-0.2-0.4,0-0.9,0-0.9c0.2,0.4,0.5,0.7,0.8,0.8c0.7-0.2,1.1-0.5,1.2-0.7
		c0,0-0.7-0.6-0.2-1.7c0,0,0.5,0.7,1.4,0.3c0.1,0,0.1-0.1,0-0.1C40.1,66.1,41,65,41,64.9C41.7,65.3,42.2,64.9,42.2,64.5z M38.1,60.9
		c-0.1,0.6-0.7,0.7-1,0.3C37.1,60.9,37.4,60.9,38.1,60.9z M24.7,50.2c0,0.2,0.1,0.3,0.1,0.4c0.1,0.2,0.1,0.2,0,0.3s-0.1,0.1-0.3,0
		c-0.1-0.1-0.2-0.1-0.4-0.1c-0.3,0-0.4,0.2-0.4,0.3s0.1,0.3,0.4,0.3c0.2,0,0.3-0.1,0.4-0.1c0.2-0.1,0.2-0.1,0.3,0s0,0.6-0.1,1
		C24.2,52.4,24,52.8,24,53c0,0.5,0.6,0.9,0.9,1c0.3-0.2,0.9-0.5,0.9-1c0-0.2-0.2-0.6-0.7-0.7c-0.1-0.4-0.1-1-0.1-1s0.1-0.1,0.3,0
		c0.1,0.1,0.2,0.1,0.4,0.1c0.3,0,0.4-0.2,0.4-0.3s-0.1-0.3-0.4-0.3c-0.2,0-0.3,0.1-0.4,0.1c-0.2,0.1-0.2,0.1-0.3,0s-0.1-0.1,0-0.3
		c0.1-0.1,0.1-0.2,0.1-0.4c0-0.3-0.2-0.4-0.3-0.4C24.9,49.8,24.7,49.9,24.7,50.2z M25,54.3c-0.4,0-0.7,0.3-0.7,0.7s0.3,0.7,0.7,0.7
		s0.7-0.3,0.7-0.7S25.4,54.3,25,54.3z M25,60.7c2.7,0,4.2,0.5,4.2,0.5c0-1.3,0-2.1,0.8-2c-0.4-1.1,1.4-1.6,1.4-3
		c0-1-0.7-1.1-0.9-1.1c-0.6,0-0.5,0.4-1,0.4c-0.1,0-0.1,0-0.1,0c0,0.2,0.1,0.5,0.4,0.5s0.3-0.3,0.6-0.3c0.1,0,0.2,0.1,0.2,0.4
		c0,0.6-0.4,1.3-0.9,1.9c-0.1-0.2-0.3-0.2-0.5-0.2c-0.3,0-0.5,0.3-0.5,0.7c0,0.1,0,0.2,0.1,0.3c-0.2,0.1-0.3,0.1-0.4,0.1
		c-0.2,0-0.5-0.1-0.5-0.6c0-1.1,1.4-2,1.4-3.4c0-0.7-0.4-1.3-1.3-1.3c-1,0-0.8,0.9-1.6,0.9h-0.1c0,0.1,0.1,0.5,0.6,0.5
		s0.6-0.8,1-0.8c0.1,0,0.4,0.1,0.4,0.6c0,0.4-0.2,1.1-0.5,1.8c-0.1-0.1-0.3-0.2-0.4-0.2c-0.4,0-0.6,0.3-0.6,0.8
		c0,0.3,0.1,0.5,0.3,0.7c-0.2,0.3-0.4,0.5-0.7,0.5c-0.6,0-0.8-0.3-0.8-0.7s0.7-0.5,0.7-1.1c0-0.4-0.3-0.6-0.5-0.6
		c-0.3,0-0.4,0.2-0.5,0.2S25.1,56,24.8,56s-0.5,0.2-0.5,0.6c0,0.6,0.7,0.8,0.7,1.1c0,0.4-0.3,0.7-0.8,0.7c-0.3,0-0.5-0.2-0.7-0.5
		c0.2-0.2,0.3-0.4,0.3-0.7c0-0.4-0.3-0.8-0.6-0.8c-0.2,0-0.3,0.1-0.4,0.2c-0.3-0.7-0.5-1.3-0.5-1.8s0.2-0.6,0.4-0.6
		c0.4,0,0.5,0.8,1,0.8c0.4,0,0.6-0.5,0.6-0.5s0,0-0.1,0c-0.8,0-0.7-0.9-1.6-0.9s-1.3,0.6-1.3,1.3c0,1.4,1.4,2.3,1.4,3.4
		c0,0.5-0.3,0.6-0.5,0.6c-0.1,0-0.2,0-0.4-0.1c0-0.1,0.1-0.2,0.1-0.3c0-0.4-0.2-0.7-0.5-0.7c-0.2,0-0.3,0.1-0.4,0.2
		c-0.5-0.5-0.9-1.2-0.9-1.9c0-0.3,0.1-0.4,0.2-0.4c0.2,0,0.2,0.3,0.6,0.3c0.2,0,0.4-0.3,0.4-0.5h-0.1c-0.5,0-0.4-0.4-1-0.4
		c-0.2,0-0.9,0.1-0.9,1.1c0,1.5,1.8,1.9,1.4,3c0.8-0.1,0.8,0.6,0.8,2C20.9,61.2,22.4,60.7,25,60.7z M20.1,62.7
		c-0.7,0.2-1.2,0.3-1.5,0.4c0-0.3,0.1-0.6,0.4-0.7v-0.1c-0.6-0.4-1,0.4-1,0.4c-0.2,0-0.6,0-0.6,0.4c0,0.9-2.1,1.4-2.6,1.5
		C15.7,64.9,16,66,16,66c0.6-0.6,1.4-1.2,1.5-1.2s0.2,0.2,0.2,0.3c0,0,0,0.1,0.1,0c0.3-0.5,0.2-0.6,0.1-0.8c0-0.1,0-0.5,0.5-0.5V70
		l-0.2,0.1c-0.1,0-1-0.8-2-1.5s-1.6-0.3-2.8,0.3c-1.6,0.8-3.1,0.1-3.1,0.1c-1.3,0.9-1.8,3.7-1.8,3.7c-0.3,0.1-0.7,0.2-1.1,0.2
		c-1,0-1.2-0.6-1.2-1c0-1.6,2-2.2,2-3.8c0-0.4-0.2-1.9-2.1-1.9c-0.2,0-1.7,0-1.7,0c-0.7,0-0.9-0.5-1-0.7c0-0.1-0.1,0-0.1,0
		c0,0.1-0.1,0.3-0.1,0.7c0,0.6,0.4,1,1.1,1c0.3,0,0.6-0.1,0.7-0.2c0.1,0,0.1,0,0.1,0.1c-0.3,0.3-0.3,1-0.2,1.2H5
		C5.2,67.6,5.8,67,6.6,67c1,0,1,0.9,1,1.1c0,1.3-2.2,2.2-2.2,3.9c0,1.8,1.9,2.1,2.9,1.9c-0.1,1.8-2.1,2.4-2.1,1.1
		c0-0.1-0.1-0.1-0.1,0c-0.2,0.6-0.2,1.2,0.6,1.3c0.1,0,0,0,0,0.1c-0.8,0.5-0.4,2.4-0.3,3c0.1,0.8-0.8,0.7-0.8,0.7s-0.1,0,0,0.1
		C6.3,81.1,7,80.5,7,80.5c0.5,0.2,0.2,0.6-0.2,0.9c-0.1,0-0.1,0.1,0,0.1s0.9,0.1,1.1-0.6c0.4,0.4,0.9,0.3,1,0.2
		c0.2-0.1,0.9-0.4,1,0.5c0,0.1,0,0,0.1,0c0.6-0.8,0-1.2-0.4-1.3c0,0,0.5-0.4,0.9,0.1c0,0,0.1,0.1,0.1,0c0.1-0.9-0.7-1-1.2-0.6
		c0-0.1-0.2-0.6,0.6-0.6c0,0,0.1,0,0-0.1c-0.6-0.6-1.1-0.1-1.2,0.1c-0.3,0.3-0.9,0.2-1,0.2c0.2-3.3,3.1-2.1,3.5-3.7
		c0-0.1,0.1-0.1,0.1,0c0.1,0.4,1.1,0.4,1.3-0.3c0-0.1,0-0.1,0-0.1c-0.8,0.8-2.7-1.8-0.1-3.9c2.2-1.8,4.2-0.8,4.9-0.2
		c0,0.3-0.1,0.3-0.2,0.4c0,0,0,0,0,0.1c0.2,0.1,0.5,0.1,0.6-0.1c0.5,0.3,0.1,0.8-0.1,0.9v0.1c0.4,0.1,0.8-0.4,0.8-0.6h0.1v1.9
		c0,2.7,3.1,3,6.4,5.3c3.4-2.3,6.4-2.6,6.4-5.3V72h0.1c0,0.2,0.4,0.7,0.8,0.6c0,0,0.1,0,0-0.1c-0.2-0.1-0.6-0.5-0.1-0.9
		c0.1,0.2,0.4,0.2,0.6,0.1c0.1,0,0-0.1,0-0.1c-0.1,0-0.3-0.1-0.2-0.4c0.8-0.6,2.7-1.6,4.9,0.2c2.6,2.1,0.7,4.7-0.2,3.9
		c0,0,0,0,0,0.1c0.2,0.8,1.2,0.7,1.3,0.3c0,0,0-0.1,0.1,0c0.4,1.6,3.3,0.4,3.5,3.7c-0.1,0-0.7,0.1-1-0.2c-0.1-0.1-0.6-0.7-1.2-0.1
		v0.1c0.8,0,0.6,0.5,0.6,0.6c-0.5-0.4-1.3-0.3-1.2,0.6c0,0.1,0,0.1,0.1,0c0.4-0.6,0.9-0.2,0.9-0.1c-0.3,0.1-1,0.5-0.4,1.3
		c0,0,0.1,0.1,0.1,0c0.1-0.9,0.9-0.6,1-0.5s0.7,0.2,1-0.2c0.2,0.7,1,0.6,1.1,0.6s0.1,0,0-0.1c-0.4-0.2-0.7-0.7-0.2-0.9
		c0,0,0.7,0.7,1.3-0.1c0-0.1,0-0.1,0-0.1c-0.1,0-0.9,0.1-0.8-0.7c0-0.6,0.5-2.5-0.3-3c0,0-0.1-0.1,0-0.1c0.8-0.2,0.9-0.7,0.6-1.3
		c0-0.1-0.1-0.1-0.1,0c-0.1,1.3-2.1,0.7-2.1-1.1c1.1,0.3,2.9-0.1,2.9-1.9c0-1.7-2.2-2.7-2.2-3.9c0-0.2,0-1.1,1-1.1
		c0.8,0,1.5,0.6,1.6,1.3c0,0,0,0,0.1,0c0.1-0.2,0.1-0.8-0.2-1.2c0,0,0-0.1,0.1-0.1c0.1,0.1,0.4,0.2,0.7,0.2c0.7,0,1.1-0.4,1.1-1
		c0-0.4-0.1-0.6-0.1-0.7s0-0.1-0.1,0c-0.1,0.2-0.3,0.7-1,0.7c0,0-1.5,0-1.7,0c-1.9,0-2.1,1.5-2.1,1.9c0,1.6,2,2.2,2,3.8
		c0,0.4-0.2,1-1.2,1c-0.4,0-0.9-0.1-1.1-0.2c0,0-0.5-2.8-1.8-3.7c0,0-1.6,0.8-3.1-0.1c-1.2-0.6-1.7-1.1-2.8-0.3
		c-1,0.7-1.9,1.5-2,1.5l-0.2-0.1V64c0.5,0,0.5,0.4,0.5,0.5s-0.2,0.3,0.1,0.8h0.1c0-0.1,0.1-0.3,0.2-0.3s0.9,0.6,1.5,1.2
		c0,0,0.4-1.1,1.2-1.4c-0.5-0.1-2.6-0.6-2.6-1.5c0-0.3-0.3-0.4-0.6-0.4c0,0-0.4-0.8-1-0.4v0.1c0.3,0.1,0.4,0.4,0.4,0.7
		c-0.6-0.2-3.2-0.9-6.4-0.9c-1.5,0-2.9,0.2-4,0.4v2.1h-0.9L20.1,62.7L20.1,62.7 M14.4,84.7c-0.2-0.1-0.4-0.2-0.4-0.6v-1.3
		c-0.4-0.1-1.4-0.5-3.5-0.5c-1.7,0-2.3,0.4-2.3,0.5l-0.5,2.5c0,0,0.7-0.6,3.2-0.5c3,0.2,6.1,2,6.1,0.1v-1.1
		C14.7,83.8,14.4,84.5,14.4,84.7z M33,83.8v1.1c0,1.9,3.1,0.1,6.2-0.1c2.5-0.2,3.2,0.5,3.2,0.5l-0.5-2.5c0-0.1-0.6-0.5-2.3-0.5
		c-2.1,0-3.1,0.4-3.5,0.5v1.3c0,0.3-0.2,0.4-0.4,0.6C35.7,84.5,35.3,83.8,33,83.8z M25,82.6c4.9,0,9.8,0.2,10.4,1
		c0,0.1,0.1,0,0.1-0.1V81c0-0.8-5.1-1.2-10.5-1.2S14.5,80.2,14.5,81v2.6c0,0,0,0.1,0.1,0.1C15.2,82.9,20.2,82.6,25,82.6z M20.7,70.5
		l-0.5-0.1v0.1l-0.6-0.2c0,0,0.4,0,0.5,0c0,0,0,0,0-0.1c-0.2-0.2-0.4-0.4-0.4-0.4s0.2,0.1,0.6,0.2l0,0c-0.2-0.2-0.4-0.6-0.4-0.6
		s0.5,0.3,0.5,0.4l0,0c-0.1-0.3-0.3-0.7-0.3-0.7l0.5,0.5l0,0c0-0.2-0.1-0.7-0.1-0.7l0.4,0.5l0,0c0-0.1,0-0.6,0-0.6s0.2,0.4,0.2,0.5
		c0,0,0,0,0.1,0c0-0.1,0.2-0.5,0.2-0.5v0.6h-0.1l-0.1,0.7c0.7-0.2,1.6-1.4,2.4-1.4s1.1,1,2.7,0.5c0.4,0.6,0.5,1.1,0.7,1.8
		c0.6,0.6,1.4,0.4,1.4-0.2c0-0.8-0.9-0.9-0.9-1.8c0-0.4,0.3-0.9,1-0.9c0.4,0,0.9,0.2,1.2,0.2c0.4,0,0.5-0.3,0.5-0.4s0.1-0.1,0.1,0
		s0,0.2,0,0.4c0,0.5-0.8,0.6-0.9,0.5c0,0-0.1,0,0,0c0.1,0.1,0.1,0.4,0,0.6l0,0c-0.1-0.4-0.5-0.8-0.9-0.8c-0.1,0-0.4,0.1-0.4,0.4
		c0,0.5,1,0.9,1,1.9s-1,1.3-2,1c0,1,1.5,1.5,1.5,0.8c0-0.1,0,0,0,0c0.2,0.3,0.1,0.5-0.2,0.6c0.2,0.1,0.3,0.6,0.4,0.9
		c0.1,0.5,0.6,0.2,0.6,0.2l0,0c-0.2,0.5-0.7,0.3-0.7,0.3c-0.2,0.2,0,0.3,0.3,0.4c0,0,0,0,0,0.1c-0.2,0.1-0.5,0.2-0.7-0.1
		c-0.1,0.3-0.4,0.3-0.5,0.3c-0.2,0-0.3,0.2-0.3,0.4l0,0c-0.4-0.3-0.2-0.6,0-0.7c0,0-0.3-0.2-0.5,0.2l0,0c-0.2-0.5,0.2-0.7,0.5-0.5
		c0-0.1-0.2-0.3-0.6-0.2l0,0c0.1-0.2,0.3-0.4,0.6-0.2c0.2,0.1,0.5-0.1,0.5-0.1c-0.6-1.3-1.9-0.2-2.2-1.2l0,0
		c-0.1,0.2-0.6,0.2-0.7-0.2l0,0c0.1,0.1,0.2,0.2,0.5-0.2c0.1-0.2,0.2-0.5,0.2-0.7c0-0.8-0.8-2.1-2-2.1c-0.8,0-1.6,0.3-2.2,0.8
		l0.6,0.1c0,0.6-0.6,0.9-1.1,0.8l0.1-0.7c-0.1,0-0.3,0.1-0.4,0.3l0,0c-0.1-0.4,0.2-0.6,0.3-0.6l0,0c-0.3,0-0.4,0.2-0.5,0.3l0,0
		C20.6,70.8,20.6,70.6,20.7,70.5z M22.4,75c-0.2,0.3-0.4,0-0.7,0c-0.3,0-0.3,0.2-0.3,0.3l0,0c-0.3-0.4,0-0.7,0.2-0.7
		c0,0-0.3-0.2-0.5,0.1l0,0c0-0.5,0.4-0.6,0.7-0.3c0-0.2-0.1-0.3-0.3-0.3l0,0c0.1-0.1,0.2-0.1,0.3-0.1c0.3,0,0.3,0.4,0.5,0.4
		c0.3,0,0.7-0.4,0.7-0.4s-0.3-0.8-0.2-1.2l0,0c-0.1,0.1-0.5,0.1-0.5-0.3l0,0c0.1,0.2,0.4,0,0.5-0.2s0.9-1.2,1.8-1.2
		c0.2,0,0.5,0.1,0.7,0.3c-0.3,0.4,0,0.8,0.2,0.7l0,0c-1.3,0.5-1.8,0.7-1.8,1.7c0,0.6,0.2,0.9,0.5,0.8l0,0c-0.1,0.1-0.2,0.2-0.4,0.2
		c-0.3,0-0.3-0.1-0.5-0.1c-0.1,0-0.6,0.3-0.6,0.5c0,0.1,0.1,0.2,0.2,0.3l0,0C22.9,75.3,22.5,75.3,22.4,75z M25.7,64.7
		c-0.4,0-0.6,0.1-0.6,0.2C25.3,65.1,25.5,65.1,25.7,64.7z M24.3,65.7c0.3-0.1,0.6,0,0.6,0v0.1c-0.6,0.1-0.6,0.3-1,0.3
		c-0.2,0-0.5-0.2-0.4-0.6c0-0.1,0-0.1,0.1,0C23.6,65.6,23.8,65.8,24.3,65.7z M16.7,78.5c0.4,0.5,0.8,0,1.3,0c0.2,0,0.5,0.1,0.6,0.6
		l0,0c0.5-0.8-0.1-1.2-0.4-1.2c0.1-0.1,0.6-0.4,1,0.1h0.1c0-0.9-0.7-1-1.2-0.6c-0.1-0.4,0.2-0.6,0.5-0.6c0,0,0.1,0,0-0.1
		C18,76,17.5,76.9,17.4,77c-0.2,0.3-1.2-0.3-1.5-0.7c0,0,0.8-0.8,0.8-1.6c0-0.1,0-0.1,0-0.1l0,0c0.1,0.1,0.2,0.1,0.3,0.1
		c0.2,0,0.5-0.1,0.5-0.7c0-0.1,0-0.1,0,0c-0.1,0.1-0.2,0.2-0.3,0.2c-0.6,0-2-2.2-3.6-2.2c-0.4,0-1.2,0.3-1.6,0.7
		c0.2,0.1,0.2,0.3,0.2,0.5c0,0.3-0.2,0.4-0.5,0.5c0,0,0,0,0,0.1c0.8,0.3,2.3,0.9,2.6,1.2c0.4,0.3,0.3,1,0.1,1.9
		c-0.2,0.8-0.7,0.7-0.9,0.7l0,0c0.2,0.3,0.5,0.3,0.7,0.3c0.4,0,0.6-0.3,0.8-0.3c0.4,0,1.1,0.5,1.1,0.9c0,0.2-0.2,0.4-0.4,0.6l0,0
		C15.9,79.1,16.6,79.2,16.7,78.5z M34.4,79.1L34.4,79.1c-0.2-0.2-0.4-0.4-0.4-0.6c0-0.4,0.8-0.9,1.1-0.9c0.2,0,0.4,0.3,0.8,0.3
		c0.2,0,0.5-0.1,0.7-0.3l0,0c-0.2,0-0.7,0.1-0.9-0.7c-0.2-0.9-0.3-1.5,0.1-1.9c0.3-0.3,1.8-0.8,2.6-1.2v-0.1
		c-0.2-0.1-0.4-0.2-0.5-0.5c0-0.2,0-0.4,0.2-0.5c-0.4-0.4-1.2-0.7-1.6-0.7c-1.6,0-3,2.2-3.6,2.2c-0.1,0-0.2,0-0.3-0.2l0,0
		c0,0.7,0.3,0.7,0.5,0.7c0.1,0,0.2,0,0.3-0.1l0,0v0.1c0,0.8,0.8,1.6,0.8,1.6c-0.4,0.4-1.3,1-1.5,0.7c-0.1-0.1-0.6-1-1.2-0.3v0.1
		c0.4,0,0.6,0.2,0.5,0.6C31.5,77,30.8,77,30.8,78c0,0,0,0.1,0.1,0c0.3-0.5,0.9-0.2,1-0.1c-0.4,0.1-1,0.5-0.4,1.2l0,0
		c0.1-0.5,0.4-0.6,0.6-0.6c0.5,0,0.9,0.5,1.3,0C33.5,79.2,34.2,79.1,34.4,79.1z M21.5,66.6c0,0.1-0.2,0-0.3,0l0,0
		c0,0.1,0.2,0.4,0.4,0.4c0.1,0,0.3-0.1,0.3-0.1s0.9,0.3,1.4,0.4c-0.2,0.2-0.3,0.5-0.3,0.8c-0.4-0.2-1.9-1-1.9-1l-0.5,0.6
		c-0.1,0.1-0.5-0.2-0.4-0.3l0.4-0.5c-0.1-0.1-0.4-0.1-0.5,0l0,0c0-0.1,0.2-0.4,0.7-0.3c0-0.3-0.4-0.2-0.5-0.2l0,0
		c0.1-0.1,0.4-0.4,0.8-0.2l0.2-0.2L21,65.7l0.2-0.3l0.2,0.3l1.7-2.4c0-0.1,0.4-0.2,0.5-0.2c0,0.1,0,0.5,0,0.5L21.9,66l0.4,0.1
		L22,66.6l-0.4-0.2L21.5,66.6z M27.5,66.2c0,0.2,0.1,0.5,0.4,0.4l0,0c0,0.2-0.5,0.5-0.7,0.2c-0.2,0.4-0.1,0.7,0.2,0.9c0,0,0,0,0,0.1
		C27.3,68,27,68,26.8,67.6c-0.3,0.2-0.3,0.7-0.1,0.9c0,0-0.9,0.5-1.6,0.2c-0.5-0.2-0.9-0.6-1.6-0.5c0.1-0.9,0.6-1.2,1.4-1.3
		c0.7-0.1,0.8-0.4,0.7-0.7c-0.2-0.1-0.7,0.2-0.7,0.2c-0.1-0.1,0-0.3,0-0.3c0-0.1-0.1-0.2-0.1-0.2c0.5,0,0.6-0.1,0.6-0.1
		c0.1-0.5-0.4-0.6-0.8-0.3c-0.2-0.2-0.1-0.4-0.1-0.4s-0.1-0.1-0.1-0.2s0.6-0.4,0.7-0.5c0-0.2,0.2-0.4,0.9-0.3c0.1-0.2,0-0.8-0.1-0.9
		c0,0,0-0.1,0.1,0c0.2,0.1,0.4,0.6,0.6,0.6c0,0,0.7-0.4,0.7-0.3l0.1,0.8c0.1,0.1,0.6,0,0.9,0.1c0.1,0,0.1,0.1,0,0.1
		c-0.2,0-0.7,0.3-0.8,0.4C27.7,65.3,27.5,66,27.5,66.2z"/>
</g>
</svg>
